<?xml version="1.0" encoding="UTF-8"?>
<!-- Generated by jsxcad -->
<!DOCTYPE svg PUBLIC "-//W3C//DTD SVG 1.1 Tiny//EN" "http://www.w3.org/Graphics/SVG/1.1/DTD/svg11-tiny.dtd">
<svg viewBox="-250 -250 500 500" width="500" height="500" xmlns="http://www.w3.org/2000/svg"><path d="M32.126841265477935,-181.29105090695953L-31.5352228880062,-34.26802336854975L80.35978342248815,-64.25009809171294z" style="fill:rgb(127,37,217)"/><path d="M-33.52416504702734,-38.037823301669455L87.1375251358586,35.82063815870628L78.71827348468871,-68.23333998438719z" style="fill:rgb(83,212,212)"/><path d="M80.05394690349887,-67.96789657023494L32.126841265477935,-181.29105090695953L80.35978342248815,-64.25009809171294zM78.71827348468871,-68.23333998438719L88.92046549931766,39.814949848922076L80.35978342248815,-64.25009809171294z" style="fill:rgb(247,158,158)"/><path d="M-31.5352228880062,-34.26802336854975L32.126841265477935,-181.29105090695953L-89.81546277555617,-144.7311503065272z" style="fill:rgb(127,37,217)"/><path d="M87.1375251358586,35.82063815870628L-33.52416504702734,-38.037823301669455L-37.00203630744919,66.02380082560121z" style="fill:rgb(83,212,212)"/><path d="M32.126841265477935,-181.29105090695953L80.05394690349887,-67.96789657023494L31.991684643511867,-184.9083146008726zM88.92046549931766,39.814949848922076L78.71827348468871,-68.23333998438719L87.1375251358586,35.82063815870628z" style="fill:rgb(247,158,158)"/><path d="M32.126841265477935,-181.29105090695953L-89.44886309362798,-148.38991863322474L-89.81546277555617,-144.7311503065272z" style="fill:rgb(83,212,212)"/><path d="M-34.794152048723156,69.78225209854324L87.1375251358586,35.82063815870628L-37.00203630744919,66.02380082560121z" style="fill:rgb(127,37,217)"/><path d="M-89.44886309362798,-148.38991863322474L32.126841265477935,-181.29105090695953L31.991684643511867,-184.9083146008726z" style="fill:rgb(83,212,212)"/><path d="M87.1375251358586,35.82063815870628L-34.794152048723156,69.78225209854324L88.92046549931766,39.814949848922076zM36.125510013430635,-74.27282623509271L-34.93742660887435,74.35668628151429L89.29796007065255,44.40383528593674z" style="fill:rgb(127,37,217)"/><path d="M-37.15499418682637,70.60046416165976L98.0393469282875,170.55684159724606L87.50893193018601,40.41087460647945z" style="fill:rgb(83,212,212)"/><path d="M35.95470449343573,-78.84417402424603L89.29796007065255,44.40383528593674L88.92046549931766,39.814949848922076zM87.50893193018601,40.41087460647945L99.99566486576845,174.44687111105955L89.29796007065255,44.40383528593674z" style="fill:rgb(247,158,158)"/><path d="M-34.93742660887435,74.35668628151429L36.125510013430635,-74.27282623509271L-100.61991680622396,-36.89941917223283z" style="fill:rgb(127,37,217)"/><path d="M46.350190017639534,56.12250984798801L85.44213536416454,-69.29024796583109L35.892678540690284,-191.43616485024575z" style="fill:rgb(247,158,158)"/><path d="M98.0393469282875,170.55684159724606L-37.15499418682637,70.60046416165976L-41.4755458133416,199.87599388169008z" style="fill:rgb(83,212,212)"/><path d="M89.29796007065255,44.40383528593674L35.95470449343573,-78.84417402424603L36.125510013430635,-74.27282623509271z" style="fill:rgb(247,158,158)"/><path d="M-91.86931401242552,-152.8492659897668L38.718805926539346,57.9598738994872L29.995703423158883,-189.65513822305837z" style="fill:rgb(83,212,212)"/><path d="M99.99566486576845,174.44687111105955L87.50893193018601,40.41087460647945L98.0393469282875,170.55684159724606zM29.995703423158883,-189.65513822305837L41.25360955953042,62.972898556000686L31.99617156836005,-184.7882328762205z" style="fill:rgb(247,158,158)"/><path d="M36.125510013430635,-74.27282623509271L-100.16003633808833,-41.48916568684652L-100.61991680622396,-36.89941917223283zM29.995703423158883,-189.65513822305837L46.350190017639534,56.12250984798801L35.892678540690284,-191.43616485024575z" style="fill:rgb(83,212,212)"/><path d="M-38.98257242472679,203.5090819293555L98.0393469282875,170.55684159724606L-41.4755458133416,199.87599388169008z" style="fill:rgb(127,37,217)"/><path d="M-100.16003633808833,-41.48916568684652L36.125510013430635,-74.27282623509271L35.95470449343573,-78.84417402424603z" style="fill:rgb(83,212,212)"/><path d="M85.44213536416454,-69.29024796583109L46.350190017639534,56.12250984798801L107.24078397749189,178.64952103638723z" style="fill:rgb(247,158,158)"/><path d="M98.0393469282875,170.55684159724606L-38.98257242472679,203.5090819293555L99.99566486576845,174.44687111105955z" style="fill:rgb(127,37,217)"/><path d="M38.718805926539346,57.9598738994872L-91.86931401242552,-152.8492659897668L-117.56392503844327,95.58718318963702z" style="fill:rgb(83,212,212)"/><path d="M41.26107068603252,63.17258924430108L-39.16250644281021,209.25397438165425L100.47330376722584,180.2531272997902z" style="fill:rgb(127,37,217)"/><path d="M99.99566486576845,174.44687111105955L41.26107068603252,63.17258924430108L100.47330376722584,180.2531272997902z" style="fill:rgb(247,158,158)"/><path d="M46.350190017639534,56.12250984798801L100.45730845003403,180.05869456320818L107.24078397749189,178.64952103638723z" style="fill:rgb(127,37,217)"/><path d="M41.25360955953042,62.972898556000686L29.995703423158883,-189.65513822305837L38.718805926539346,57.9598738994872z" style="fill:rgb(247,158,158)"/><path d="M46.350190017639534,56.12250984798801L29.995703423158883,-189.65513822305837L38.718805926539346,57.9598738994872z" style="fill:rgb(83,212,212)"/><path d="M-39.16250644281021,209.25397438165425L41.26107068603252,63.17258924430108L-114.37930550599057,100.42345698921858z" style="fill:rgb(127,37,217)"/><path d="M41.26107068603252,63.17258924430108L99.99566486576845,174.44687111105955L41.038399771598655,57.2131487126043z" style="fill:rgb(247,158,158)"/><path d="M100.45730845003403,180.05869456320818L46.350190017639534,56.12250984798801L38.718805926539346,57.9598738994872z" style="fill:rgb(127,37,217)"/><path d="M41.26107068603252,63.17258924430108L-113.7854244729934,94.49633446005095L-114.37930550599057,100.42345698921858z" style="fill:rgb(83,212,212)"/><path d="M-114.35940996913054,100.22489349788174L38.718805926539346,57.9598738994872L-117.56392503844327,95.58718318963702z" style="fill:rgb(127,37,217)"/><path d="M-113.7854244729934,94.49633446005095L41.26107068603252,63.17258924430108L41.038399771598655,57.2131487126043z" style="fill:rgb(83,212,212)"/><path d="M38.718805926539346,57.9598738994872L-114.35940996913054,100.22489349788174L41.25360955953042,62.972898556000686z" style="fill:rgb(127,37,217)"/></svg>
