<svg viewBox="-250 -250 500 500" width="500" height="500" xmlns="http://www.w3.org/2000/svg"><path d="M-29.425444894153546,-39.1404470530477L-33.52415107959989,-38.0378477444403L-31.535242922845264,-34.268025929330676zM78.7182756556208,-68.23332033201001L-29.425444894153546,-39.1404470530477L-31.535242922845264,-34.268025929330676zM78.7182756556208,-68.23332033201001L-31.535242922845264,-34.268025929330676L80.35981918841168,-64.25013385769164z" style="fill:rgb(127,37,217)"/><path d="M78.41761139168125,-71.94924604706314L80.35981918841168,-64.25013385769164L80.05398253335883,-67.96792507411203zM85.75805091527285,-65.69657471308834L85.44209968324033,-69.29023369350956L83.82282114965511,-73.28209312780433zM78.41761139168125,-71.94924604706314L78.70695775960246,-68.37319881408777L80.35981918841168,-64.25013385769164zM78.70695775960246,-68.37319881408777L78.7182756556208,-68.23332033201001L80.35981918841168,-64.25013385769164zM85.75805091527285,-65.69657471308834L83.82282114965511,-73.28209312780433L84.13390256789248,-69.69028653521971z" style="fill:rgb(247,158,158)"/><path d="M-29.425444894153546,-39.1404470530477L-89.81546012803726,-144.73114603717164L-33.52415107959989,-38.0378477444403z" style="fill:rgb(127,37,217)"/><path d="M76.62804562110065,-67.67104301579992L-33.52415107959989,-38.0378477444403L-37.00202116494111,66.02378589710658z" style="fill:rgb(83,212,212)"/><path d="M78.7182756556208,-68.23332033201001L32.12682161143087,-181.29109905733353L-29.425444894153546,-39.1404470530477z" style="fill:rgb(127,37,217)"/><path d="M78.41761139168125,-71.94924604706314L31.991665071686583,-184.90834680844122L78.70695775960246,-68.37319881408777zM78.74813433481083,-68.16088839615365L88.92050710319636,39.81493096621381L80.35981918841168,-64.25013385769164zM78.70695775960246,-68.37319881408777L32.12682161143087,-181.29109905733353L78.7182756556208,-68.23332033201001zM38.0275604152496,-183.06017660195565L84.13390256789248,-69.69028653521971L83.82282114965511,-73.28209312780433zM94.90703491457975,38.36482440609561L85.75805091527285,-65.69657471308834L84.13390256789248,-69.69028653521971z" style="fill:rgb(247,158,158)"/><path d="M87.13752214375069,35.820676666441784L78.7182756556208,-68.23332033201001L76.62804562110065,-67.67104301579992z" style="fill:rgb(83,212,212)"/><path d="M78.74813433481083,-68.16088839615365L78.7182756556208,-68.23332033201001L87.13752214375069,35.820676666441784z" style="fill:rgb(247,158,158)"/><path d="M-29.425444894153546,-39.1404470530477L32.12682161143087,-181.29109905733353L-89.81546012803726,-144.73114603717164z" style="fill:rgb(127,37,217)"/><path d="M76.62804562110065,-67.67104301579992L-37.00202116494111,66.02378589710658L25.285353984938187,50.8692941400576zM87.13752214375069,35.820676666441784L76.62804562110065,-67.67104301579992L25.285353984938187,50.8692941400576z" style="fill:rgb(83,212,212)"/><path d="M78.70695775960246,-68.37319881408777L31.991665071686583,-184.90834680844122L32.12682161143087,-181.29109905733353zM38.0275604152496,-183.06017660195565L83.82282114965511,-73.28209312780433L37.872668552085685,-186.5551634459286zM78.74813433481083,-68.16088839615365L88.01402495924418,37.78434252441893L88.92050710319636,39.81493096621381zM78.74813433481083,-68.16088839615365L87.13752214375069,35.820676666441784L88.01402495924418,37.78434252441893zM38.18281288856741,-179.5570450042941L84.13390256789248,-69.69028653521971L38.0275604152496,-183.06017660195565zM94.90703491457975,38.36482440609561L84.13390256789248,-69.69028653521971L93.14545897946938,34.35889349688178zM38.18281288856741,-179.5570450042941L93.14545897946938,34.35889349688178L84.13390256789248,-69.69028653521971z" style="fill:rgb(247,158,158)"/><path d="M-89.81546012803726,-144.73114603717164L31.991665071686583,-184.90834680844122L-89.44886046767772,-148.3899142738849z" style="fill:rgb(83,212,212)"/><path d="M-32.61597115068558,69.5012194982587L-37.15497925905537,70.6004574695482L-34.93744948050817,74.35669344189064z" style="fill:rgb(127,37,217)"/><path d="M27.83372698436998,-185.47586306368152L-91.86927700124308,-152.84926824384368L-92.23465100680099,-149.31653304072202z" style="fill:rgb(83,212,212)"/><path d="M82.34369047727304,36.98695431527624L-37.00202116494111,66.02378589710658L-34.79417482761928,69.78225926328307zM87.5089285771499,40.41090897523366L-32.61597115068558,69.5012194982587L-34.93744948050817,74.35669344189064z" style="fill:rgb(127,37,217)"/><path d="M31.991665071686583,-184.90834680844122L-89.81546012803726,-144.73114603717164L32.12682161143087,-181.29109905733353zM27.83372698436998,-185.47586306368152L29.995724034870204,-189.65517847231285L-91.86927700124308,-152.84926824384368z" style="fill:rgb(83,212,212)"/><path d="M82.34369047727304,36.98695431527624L-34.79417482761928,69.78225926328307L88.92050710319636,39.81493096621381zM87.5089285771499,40.41090897523366L-34.93744948050817,74.35669344189064L89.29800151893765,44.40381228461081z" style="fill:rgb(127,37,217)"/><path d="M30.155258918423055,-186.0753115724794L31.9961525990264,-184.78825282877114L29.995724034870204,-189.65517847231285zM30.155258918423055,-186.0753115724794L32.12682161143087,-181.29109905733353L31.9961525990264,-184.78825282877114zM35.892702849443204,-191.43616776417244L38.0275604152496,-183.06017660195565L37.872668552085685,-186.5551634459286zM35.892702849443204,-191.43616776417244L37.038707359003936,-185.4917434567729L38.0275604152496,-183.06017660195565z" style="fill:rgb(247,158,158)"/><path d="M35.93255619985561,-187.9148819680802L35.892702849443204,-191.43616776417244L29.995724034870204,-189.65517847231285zM30.118714064587813,-186.16396366744675L29.995724034870204,-189.65517847231285L27.83372698436998,-185.47586306368152z" style="fill:rgb(83,212,212)"/><path d="M30.155258918423055,-186.0753115724794L29.995724034870204,-189.65517847231285L30.118714064587813,-186.16396366744675z" style="fill:rgb(247,158,158)"/><path d="M82.34369047727304,36.98695431527624L88.92050710319636,39.81493096621381L87.13752214375069,35.820676666441784z" style="fill:rgb(127,37,217)"/><path d="M35.93255619985561,-187.9148819680802L29.995724034870204,-189.65517847231285L30.118714064587813,-186.16396366744675z" style="fill:rgb(83,212,212)"/><path d="M87.13752214375069,35.820676666441784L89.29800151893765,44.40381228461081L88.92050710319636,39.81493096621381zM36.04008286239285,-187.94727517766023L37.038707359003936,-185.4917434567729L35.892702849443204,-191.43616776417244zM37.038707359003936,-185.4917434567729L38.18281288856741,-179.5570450042941L38.0275604152496,-183.06017660195565z" style="fill:rgb(247,158,158)"/><path d="M36.04008286239285,-187.94727517766023L35.892702849443204,-191.43616776417244L35.93255619985561,-187.9148819680802z" style="fill:rgb(83,212,212)"/><path d="M87.13752214375069,35.820676666441784L87.49494901173631,40.23805099040161L89.29800151893765,44.40381228461081zM93.54305292660604,38.94959056681784L94.90703491457975,38.36482440609561L93.14545897946938,34.35889349688178zM93.54305292660604,38.94959056681784L95.31053005069315,42.954215954907795L94.90703491457975,38.36482440609561zM87.49494901173631,40.23805099040161L87.5089285771499,40.41090897523366L89.29800151893765,44.40381228461081z" style="fill:rgb(247,158,158)"/><path d="M-32.61597115068558,69.5012194982587L-100.6199151449879,-36.899401367297855L-37.15497925905537,70.6004574695482z" style="fill:rgb(127,37,217)"/><path d="M27.83372698436998,-185.47586306368152L-92.23465100680099,-149.31653304072202L-102.90367081443355,-46.15970509495264zM-41.47552973762581,199.8759996831087L23.054672927258235,56.01962996675757L-37.15497925905537,70.6004574695482z" style="fill:rgb(83,212,212)"/><path d="M38.18281288856741,-179.5570450042941L68.71145335306848,-21.20362964663017L93.14545897946938,34.35889349688178zM70.04422112942947,-14.290726642125083L93.54305292660604,38.94959056681784L93.14545897946938,34.35889349688178z" style="fill:rgb(247,158,158)"/><path d="M-39.030458329676705,199.36210312248147L87.5089285771499,40.41090897523366L23.054672927258235,56.01962996675757z" style="fill:rgb(83,212,212)"/><path d="M87.5089285771499,40.41090897523366L36.12548839319544,-74.27284529548247L-32.61597115068558,69.5012194982587z" style="fill:rgb(127,37,217)"/><path d="M30.155258918423055,-186.0753115724794L35.95468297251953,-78.8441930722354L32.12682161143087,-181.29109905733353z" style="fill:rgb(247,158,158)"/><path d="M33.72332456202075,-83.84323875651995L30.118714064587813,-186.16396366744675L27.83372698436998,-185.47586306368152z" style="fill:rgb(83,212,212)"/><path d="M70.04422112942947,-14.290726642125083L93.14545897946938,34.35889349688178L68.71145335306848,-21.20362964663017zM30.155258918423055,-186.0753115724794L30.118714064587813,-186.16396366744675L33.72332456202075,-83.84323875651995zM87.13752214375069,35.820676666441784L35.95468297251953,-78.8441930722354L87.49494901173631,40.23805099040161z" style="fill:rgb(247,158,158)"/><path d="M30.118714064587813,-186.16396366744675L37.10135788084342,-84.77492713694228L35.93255619985561,-187.9148819680802z" style="fill:rgb(83,212,212)"/><path d="M40.360379363925006,-85.67378126735805L37.038707359003936,-185.4917434567729L36.04008286239285,-187.94727517766023zM40.360379363925006,-85.67378126735805L38.18281288856741,-179.5570450042941L37.038707359003936,-185.4917434567729z" style="fill:rgb(247,158,158)"/><path d="M40.360379363925006,-85.67378126735805L36.04008286239285,-187.94727517766023L35.93255619985561,-187.9148819680802z" style="fill:rgb(83,212,212)"/><path d="M99.96040171066842,174.376706854851L89.29800151893765,44.40381228461081L88.42198442480581,42.448769539172126zM87.49494901173631,40.23805099040161L36.12548839319544,-74.27284529548247L87.5089285771499,40.41090897523366zM104.33838762723664,163.59462982887914L95.31053005069315,42.954215954907795L93.54305292660604,38.94959056681784zM98.039344402583,170.55680144175943L88.42198442480581,42.448769539172126L87.5089285771499,40.41090897523366z" style="fill:rgb(247,158,158)"/><path d="M-41.47552973762581,199.8759996831087L-39.030458329676705,199.36210312248147L23.054672927258235,56.01962996675757z" style="fill:rgb(83,212,212)"/><path d="M68.71145335306848,-21.20362964663017L38.18281288856741,-179.5570450042941L42.56582297402435,-80.65850414445354z" style="fill:rgb(247,158,158)"/><path d="M-32.61597115068558,69.5012194982587L36.12548839319544,-74.27284529548247L-100.6199151449879,-36.899401367297855z" style="fill:rgb(127,37,217)"/><path d="M27.83372698436998,-185.47586306368152L-102.90367081443355,-46.15970509495264L-34.472515667981064,-65.03386443219692z" style="fill:rgb(83,212,212)"/><path d="M70.04422112942947,-14.290726642125083L104.33838762723664,163.59462982887914L93.54305292660604,38.94959056681784z" style="fill:rgb(247,158,158)"/><path d="M-39.030458329676705,199.36210312248147L98.039344402583,170.55680144175943L87.5089285771499,40.41090897523366zM33.72332456202075,-83.84323875651995L27.83372698436998,-185.47586306368152L-34.472515667981064,-65.03386443219692z" style="fill:rgb(83,212,212)"/><path d="M30.155258918423055,-186.0753115724794L34.82056289256007,-81.38494392690694L35.95468297251953,-78.8441930722354zM70.04422112942947,-14.290726642125083L68.71145335306848,-21.20362964663017L42.56582297402435,-80.65850414445354zM30.155258918423055,-186.0753115724794L33.72332456202075,-83.84323875651995L34.82056289256007,-81.38494392690694zM87.49494901173631,40.23805099040161L35.95468297251953,-78.8441930722354L36.12548839319544,-74.27284529548247zM40.360379363925006,-85.67378126735805L42.56582297402435,-80.65850414445354L38.18281288856741,-179.5570450042941z" style="fill:rgb(247,158,158)"/><path d="M30.118714064587813,-186.16396366744675L33.72332456202075,-83.84323875651995L37.10135788084342,-84.77492713694228z" style="fill:rgb(83,212,212)"/><path d="M99.96040171066842,174.376706854851L99.9957136451866,174.44687856237255L89.29800151893765,44.40381228461081z" style="fill:rgb(247,158,158)"/><path d="M40.360379363925006,-85.67378126735805L35.93255619985561,-187.9148819680802L37.10135788084342,-84.77492713694228z" style="fill:rgb(83,212,212)"/><path d="M104.33838762723664,163.59462982887914L106.7471213776482,173.03508356398387L95.31053005069315,42.954215954907795zM98.039344402583,170.55680144175943L99.96040171066842,174.376706854851L88.42198442480581,42.448769539172126z" style="fill:rgb(247,158,158)"/><path d="M-100.6199151449879,-36.899401367297855L35.95468297251953,-78.8441930722354L-100.16003469200284,-41.48914788785806zM-102.90367081443355,-46.15970509495264L-103.37819551994164,-41.571611487748065L-37.20719079454434,-59.74763447400961z" style="fill:rgb(83,212,212)"/><path d="M-36.582517785578595,204.56758684691724L-41.66780444614088,205.6290712118744L-39.162532532889415,209.25399253492265z" style="fill:rgb(127,37,217)"/><path d="M-102.90367081443355,-46.15970509495264L-37.20719079454434,-59.74763447400961L-34.472515667981064,-65.03386443219692z" style="fill:rgb(83,212,212)"/><path d="M92.63231473346757,171.693118103826L-41.47552973762581,199.8759996831087L-38.98259839425474,203.5091171813968z" style="fill:rgb(127,37,217)"/><path d="M70.04422112942947,-14.290726642125083L42.56582297402435,-80.65850414445354L42.768364309168305,-76.08834735164878zM70.04422112942947,-14.290726642125083L104.8179989972442,169.13231604116575L104.33838762723664,163.59462982887914z" style="fill:rgb(247,158,158)"/><path d="M98.50974974426313,176.37056621294968L-36.582517785578595,204.56758684691724L-39.162532532889415,209.25399253492265z" style="fill:rgb(127,37,217)"/><path d="M35.95468297251953,-78.8441930722354L-100.6199151449879,-36.899401367297855L36.12548839319544,-74.27284529548247zM-37.20719079454434,-59.74763447400961L33.72332456202075,-83.84323875651995L-34.472515667981064,-65.03386443219692z" style="fill:rgb(83,212,212)"/><path d="M92.63231473346757,171.693118103826L-38.98259839425474,203.5091171813968L99.9957136451866,174.44687856237255zM98.50974974426313,176.37056621294968L-39.162532532889415,209.25399253492265L100.47335193721763,180.2531334887873z" style="fill:rgb(127,37,217)"/><path d="M-37.20719079454434,-59.74763447400961L33.884248127176754,-79.27524731590543L33.72332456202075,-83.84323875651995z" style="fill:rgb(83,212,212)"/><path d="M35.02838685880994,-76.72152564200101L35.95468297251953,-78.8441930722354L34.82056289256007,-81.38494392690694zM35.02838685880994,-76.72152564200101L36.12548839319544,-74.27284529548247L35.95468297251953,-78.8441930722354zM33.72332456202075,-83.84323875651995L35.02838685880994,-76.72152564200101L34.82056289256007,-81.38494392690694zM40.5532885657454,-81.10708161225675L42.56582297402435,-80.65850414445354L40.360379363925006,-85.67378126735805zM40.5532885657454,-81.10708161225675L42.768364309168305,-76.08834735164878L42.56582297402435,-80.65850414445354z" style="fill:rgb(247,158,158)"/><path d="M33.884248127176754,-79.27524731590543L37.10135788084342,-84.77492713694228L33.72332456202075,-83.84323875651995z" style="fill:rgb(83,212,212)"/><path d="M33.72332456202075,-83.84323875651995L33.884248127176754,-79.27524731590543L35.02838685880994,-76.72152564200101z" style="fill:rgb(247,158,158)"/><path d="M37.10135788084342,-84.77492713694228L40.5532885657454,-81.10708161225675L40.360379363925006,-85.67378126735805z" style="fill:rgb(83,212,212)"/><path d="M104.33838762723664,163.59462982887914L105.78190065050453,171.0823893701405L106.7471213776482,173.03508356398387z" style="fill:rgb(247,158,158)"/><path d="M92.63231473346757,171.693118103826L99.9957136451866,174.44687856237255L98.039344402583,170.55680144175943z" style="fill:rgb(127,37,217)"/><path d="M33.884248127176754,-79.27524731590543L37.15345325438539,-80.17324828115056L37.10135788084342,-84.77492713694228z" style="fill:rgb(83,212,212)"/><path d="M98.039344402583,170.55680144175943L100.47335193721763,180.2531334887873L99.9957136451866,174.44687856237255z" style="fill:rgb(247,158,158)"/><path d="M37.10135788084342,-84.77492713694228L37.15345325438539,-80.17324828115056L40.5532885657454,-81.10708161225675z" style="fill:rgb(83,212,212)"/><path d="M105.78190065050453,171.0823893701405L104.33838762723664,163.59462982887914L104.8179989972442,169.13231604116575zM105.78190065050453,171.0823893701405L107.2407373483905,178.6495179649066L106.7471213776482,173.03508356398387zM98.039344402583,170.55680144175943L98.49203442267186,176.1516216061351L100.47335193721763,180.2531334887873zM105.78190065050453,171.0823893701405L104.8179989972442,169.13231604116575L105.30488258528575,174.75396869807398zM105.78190065050453,171.0823893701405L105.30488258528575,174.75396869807398L107.2407373483905,178.6495179649066z" style="fill:rgb(247,158,158)"/><path d="M105.30488258528575,174.75396869807398L100.45735488613715,180.05866188435743L107.2407373483905,178.6495179649066zM98.73974866283606,176.12458931741068L98.49400313787682,176.17594408099305L100.45735488613715,180.05866188435743z" style="fill:rgb(127,37,217)"/><path d="M98.49203442267186,176.1516216061351L98.50974974426313,176.37056621294968L100.47335193721763,180.2531334887873z" style="fill:rgb(247,158,158)"/><path d="M105.30488258528575,174.75396869807398L98.73974866283606,176.12458931741068L100.45735488613715,180.05866188435743zM-36.582517785578595,204.56758684691724L-114.37930550641981,100.42349608003651L-41.66780444614088,205.6290712118744z" style="fill:rgb(127,37,217)"/><path d="M-116.97091644858152,89.85394540233312L-37.20719079454434,-59.74763447400961L-103.37819551994164,-41.571611487748065z" style="fill:rgb(83,212,212)"/><path d="M70.04422112942947,-14.290726642125083L42.768364309168305,-76.08834735164878L48.59540369797418,55.39337525951724z" style="fill:rgb(247,158,158)"/><path d="M-114.25812267838985,89.19688516155551L33.884248127176754,-79.27524731590543L-37.20719079454434,-59.74763447400961z" style="fill:rgb(83,212,212)"/><path d="M70.04422112942947,-14.290726642125083L48.59540369797418,55.39337525951724L104.8179989972442,169.13231604116575z" style="fill:rgb(247,158,158)"/><path d="M98.50974974426313,176.37056621294968L41.26104689765401,63.17258662580287L-36.582517785578595,204.56758684691724z" style="fill:rgb(127,37,217)"/><path d="M40.99287517535345,57.1227095419772L36.12548839319544,-74.27284529548247L35.02838685880994,-76.72152564200101zM40.5532885657454,-81.10708161225675L48.59540369797418,55.39337525951724L42.768364309168305,-76.08834735164878zM38.51581743499107,52.19702593571372L35.02838685880994,-76.72152564200101L33.884248127176754,-79.27524731590543zM98.039344402583,170.55680144175943L41.03837689939469,57.21314698525414L98.49203442267186,176.1516216061351z" style="fill:rgb(247,158,158)"/><path d="M33.884248127176754,-79.27524731590543L38.65311308791349,52.16384558070552L37.15345325438539,-80.17324828115056zM37.15345325438539,-80.17324828115056L46.10674116182303,50.358643470644196L40.5532885657454,-81.10708161225675z" style="fill:rgb(83,212,212)"/><path d="M48.59540369797418,55.39337525951724L105.30488258528575,174.75396869807398L104.8179989972442,169.13231604116575zM98.49203442267186,176.1516216061351L41.26104689765401,63.17258662580287L98.50974974426313,176.37056621294968z" style="fill:rgb(247,158,158)"/><path d="M48.5756669066549,61.22013834940005L98.49400313787682,176.17594408099305L98.73974866283606,176.12458931741068zM48.850714944687574,61.154241100024045L98.73974866283606,176.12458931741068L105.30488258528575,174.75396869807398z" style="fill:rgb(127,37,217)"/><path d="M-116.97091644858152,89.85394540233312L-114.25812267838985,89.19688516155551L-37.20719079454434,-59.74763447400961z" style="fill:rgb(83,212,212)"/><path d="M-36.582517785578595,204.56758684691724L41.26104689765401,63.17258662580287L-114.37930550641981,100.42349608003651z" style="fill:rgb(127,37,217)"/><path d="M-114.25812267838985,89.19688516155551L38.51581743499107,52.19702593571372L33.884248127176754,-79.27524731590543z" style="fill:rgb(83,212,212)"/><path d="M40.99287517535345,57.1227095419772L41.03837689939469,57.21314698525414L36.12548839319544,-74.27284529548247zM38.51581743499107,52.19702593571372L40.99287517535345,57.1227095419772L35.02838685880994,-76.72152564200101zM98.49203442267186,176.1516216061351L41.03837689939469,57.21314698525414L41.26104689765401,63.17258662580287z" style="fill:rgb(247,158,158)"/><path d="M33.884248127176754,-79.27524731590543L38.51581743499107,52.19702593571372L38.65311308791349,52.16384558070552z" style="fill:rgb(83,212,212)"/><path d="M40.5532885657454,-81.10708161225675L46.10674116182303,50.358643470644196L48.59540369797418,55.39337525951724z" style="fill:rgb(247,158,158)"/><path d="M37.15345325438539,-80.17324828115056L38.65311308791349,52.16384558070552L46.10674116182303,50.358643470644196z" style="fill:rgb(83,212,212)"/><path d="M48.59540369797418,55.39337525951724L48.850714944687574,61.154241100024045L105.30488258528575,174.75396869807398z" style="fill:rgb(247,158,158)"/><path d="M48.5756669066549,61.22013834940005L41.25358497024659,62.97286930954725L98.49400313787682,176.17594408099305zM48.850714944687574,61.154241100024045L48.5756669066549,61.22013834940005L98.73974866283606,176.12458931741068z" style="fill:rgb(127,37,217)"/><path d="M-116.97091644858152,89.85394540233312L-117.56387594296834,95.5871635513555L-114.25812267838985,89.19688516155551zM-114.37930550641981,100.42349608003651L41.03837689939469,57.21314698525414L-113.78542447341817,94.49637334787913z" style="fill:rgb(83,212,212)"/><path d="M-114.35940782313422,100.2249013899892L38.71883628090686,57.9599283513748L-117.56387594296834,95.5871635513555z" style="fill:rgb(127,37,217)"/><path d="M-114.25812267838985,89.19688516155551L-117.56387594296834,95.5871635513555L38.71883628090686,57.9599283513748zM41.03837689939469,57.21314698525414L-114.37930550641981,100.42349608003651L41.26104689765401,63.17258662580287z" style="fill:rgb(83,212,212)"/><path d="M41.25358497024659,62.97286930954725L38.71883628090686,57.9599283513748L-114.35940782313422,100.2249013899892z" style="fill:rgb(127,37,217)"/><path d="M-114.25812267838985,89.19688516155551L38.71883628090686,57.9599283513748L38.51581743499107,52.19702593571372z" style="fill:rgb(83,212,212)"/><path d="M40.99287517535345,57.1227095419772L41.25358497024659,62.97286930954725L41.03837689939469,57.21314698525414zM38.51581743499107,52.19702593571372L41.25358497024659,62.97286930954725L40.99287517535345,57.1227095419772zM46.10674116182303,50.358643470644196L48.850714944687574,61.154241100024045L48.59540369797418,55.39337525951724z" style="fill:rgb(247,158,158)"/><path d="M38.65311308791349,52.16384558070552L38.51581743499107,52.19702593571372L38.71883628090686,57.9599283513748z" style="fill:rgb(83,212,212)"/><path d="M38.51581743499107,52.19702593571372L38.71883628090686,57.9599283513748L41.25358497024659,62.97286930954725z" style="fill:rgb(247,158,158)"/><path d="M48.5756669066549,61.22013834940005L38.71883628090686,57.9599283513748L41.25358497024659,62.97286930954725z" style="fill:rgb(127,37,217)"/><path d="M38.65311308791349,52.16384558070552L46.35022070364637,56.12248939047914L46.10674116182303,50.358643470644196z" style="fill:rgb(83,212,212)"/><path d="M46.10674116182303,50.358643470644196L46.35022070364637,56.12248939047914L48.850714944687574,61.154241100024045z" style="fill:rgb(247,158,158)"/><path d="M48.850714944687574,61.154241100024045L46.35022070364637,56.12248939047914L48.5756669066549,61.22013834940005z" style="fill:rgb(127,37,217)"/><path d="M38.65311308791349,52.16384558070552L38.71883628090686,57.9599283513748L46.35022070364637,56.12248939047914z" style="fill:rgb(83,212,212)"/><path d="M48.5756669066549,61.22013834940005L46.35022070364637,56.12248939047914L38.71883628090686,57.9599283513748z" style="fill:rgb(127,37,217)"/></svg>