<?xml version="1.0" encoding="UTF-8"?>
<!-- Generated by jsxcad -->
<!DOCTYPE svg PUBLIC "-//W3C//DTD SVG 1.1 Tiny//EN" "http://www.w3.org/Graphics/SVG/1.1/DTD/svg11-tiny.dtd">
<svg viewBox="-250 -250 500 500" width="500" height="500" xmlns="http://www.w3.org/2000/svg"><path d="M32.1268412654779,-181.29105090695933L-31.535222888006164,-34.26802336854971L80.35978342248808,-64.2500980917129z" style="fill:rgb(127,37,217)"/><path d="M-33.52416504702732,-38.037823301669434L87.13752513585851,35.82063815870625L78.71827348468864,-68.23333998438713z" style="fill:rgb(83,212,212)"/><path d="M80.05394690349881,-67.9678965702349L32.1268412654779,-181.29105090695933L80.35978342248808,-64.2500980917129zM87.13752513585851,35.82063815870625L80.35978342248808,-64.2500980917129L78.71827348468864,-68.23333998438713z" style="fill:rgb(247,158,158)"/><path d="M-31.535222888006164,-34.26802336854971L32.1268412654779,-181.29105090695933L-89.81546277555609,-144.7311503065271z" style="fill:rgb(127,37,217)"/><path d="M87.13752513585851,35.82063815870625L-33.52416504702732,-38.037823301669434L-37.002036307449146,66.02380082560114z" style="fill:rgb(83,212,212)"/><path d="M32.1268412654779,-181.29105090695933L80.05394690349881,-67.9678965702349L31.991684643511835,-184.9083146008724zM80.35978342248808,-64.2500980917129L87.13752513585851,35.82063815870625L88.92046549931757,39.81494984892204z" style="fill:rgb(247,158,158)"/><path d="M32.1268412654779,-181.29105090695933L-89.4488630936279,-148.38991863322462L-89.81546277555609,-144.7311503065271z" style="fill:rgb(83,212,212)"/><path d="M-34.79415204872312,69.78225209854318L87.13752513585851,35.82063815870625L-37.002036307449146,66.02380082560114z" style="fill:rgb(127,37,217)"/><path d="M-89.4488630936279,-148.38991863322462L32.1268412654779,-181.29105090695933L31.991684643511835,-184.9083146008724z" style="fill:rgb(83,212,212)"/><path d="M87.13752513585851,35.82063815870625L-34.79415204872312,69.78225209854318L88.92046549931757,39.81494984892204zM36.12551001343059,-74.27282623509262L-34.93742660887431,74.3566862815142L89.29796007065248,44.4038352859367z" style="fill:rgb(127,37,217)"/><path d="M-37.15499418682634,70.60046416165969L98.03934692828739,170.5568415972459L87.50893193018594,40.410874606479425z" style="fill:rgb(83,212,212)"/><path d="M88.92046549931757,39.81494984892204L36.12551001343059,-74.27282623509262L89.29796007065248,44.4038352859367zM98.03934692828739,170.5568415972459L89.29796007065248,44.4038352859367L87.50893193018594,40.410874606479425z" style="fill:rgb(247,158,158)"/><path d="M-34.93742660887431,74.3566862815142L36.12551001343059,-74.27282623509262L-100.61991680622384,-36.89941917223279z" style="fill:rgb(127,37,217)"/><path d="M46.35019001763947,56.122509847987935L85.44213536416449,-69.29024796583104L35.89267854069025,-191.43616485024555z" style="fill:rgb(247,158,158)"/><path d="M98.03934692828739,170.5568415972459L-37.15499418682634,70.60046416165969L-41.475545813341554,199.87599388168988z" style="fill:rgb(83,212,212)"/><path d="M36.12551001343059,-74.27282623509262L88.92046549931757,39.81494984892204L35.954704493435685,-78.84417402424593zM89.29796007065248,44.4038352859367L98.03934692828739,170.5568415972459L99.99566486576832,174.44687111105932z" style="fill:rgb(247,158,158)"/><path d="M-91.86931401242543,-152.84926598976665L38.7188059265393,57.95987389948713L29.995703423158854,-189.6551382230582z" style="fill:rgb(83,212,212)"/><path d="M38.7188059265393,57.95987389948713L31.996171568360015,-184.78823287622026L29.995703423158854,-189.6551382230582z" style="fill:rgb(247,158,158)"/><path d="M36.12551001343059,-74.27282623509262L-100.1600363380882,-41.48916568684647L-100.61991680622384,-36.89941917223279zM29.995703423158854,-189.6551382230582L46.35019001763947,56.122509847987935L35.89267854069025,-191.43616485024555z" style="fill:rgb(83,212,212)"/><path d="M-38.98257242472675,203.50908192935526L98.03934692828739,170.5568415972459L-41.475545813341554,199.87599388168988z" style="fill:rgb(127,37,217)"/><path d="M-100.1600363380882,-41.48916568684647L36.12551001343059,-74.27282623509262L35.954704493435685,-78.84417402424593z" style="fill:rgb(83,212,212)"/><path d="M85.44213536416449,-69.29024796583104L46.35019001763947,56.122509847987935L107.24078397749176,178.64952103638703z" style="fill:rgb(247,158,158)"/><path d="M98.03934692828739,170.5568415972459L-38.98257242472675,203.50908192935526L99.99566486576832,174.44687111105932z" style="fill:rgb(127,37,217)"/><path d="M38.7188059265393,57.95987389948713L-91.86931401242543,-152.84926598976665L-117.56392503844312,95.58718318963689z" style="fill:rgb(83,212,212)"/><path d="M41.26107068603246,63.172589244300994L-39.16250644281017,209.25397438165402L100.47330376722572,180.25312729979z" style="fill:rgb(127,37,217)"/><path d="M99.99566486576832,174.44687111105932L41.26107068603246,63.172589244300994L100.47330376722572,180.25312729979z" style="fill:rgb(247,158,158)"/><path d="M46.35019001763947,56.122509847987935L100.45730845003392,180.05869456320795L107.24078397749176,178.64952103638703z" style="fill:rgb(127,37,217)"/><path d="M31.996171568360015,-184.78823287622026L38.7188059265393,57.95987389948713L41.25360955953037,62.97289855600061z" style="fill:rgb(247,158,158)"/><path d="M46.35019001763947,56.122509847987935L29.995703423158854,-189.6551382230582L38.7188059265393,57.95987389948713z" style="fill:rgb(83,212,212)"/><path d="M-39.16250644281017,209.25397438165402L41.26107068603246,63.172589244300994L-114.37930550599042,100.42345698921844z" style="fill:rgb(127,37,217)"/><path d="M41.26107068603246,63.172589244300994L99.99566486576832,174.44687111105932L41.03839977159859,57.213148712604216z" style="fill:rgb(247,158,158)"/><path d="M100.45730845003392,180.05869456320795L46.35019001763947,56.122509847987935L38.7188059265393,57.95987389948713z" style="fill:rgb(127,37,217)"/><path d="M41.26107068603246,63.172589244300994L-113.78542447299324,94.4963344600508L-114.37930550599042,100.42345698921844z" style="fill:rgb(83,212,212)"/><path d="M-114.35940996913037,100.2248934978816L38.7188059265393,57.95987389948713L-117.56392503844312,95.58718318963689z" style="fill:rgb(127,37,217)"/><path d="M-113.78542447299324,94.4963344600508L41.26107068603246,63.172589244300994L41.03839977159859,57.213148712604216z" style="fill:rgb(83,212,212)"/><path d="M38.7188059265393,57.95987389948713L-114.35940996913037,100.2248934978816L41.25360955953037,62.97289855600061z" style="fill:rgb(127,37,217)"/></svg>
