<?xml version="1.0" encoding="UTF-8"?>
<!-- Generated by jsxcad -->
<!DOCTYPE svg PUBLIC "-//W3C//DTD SVG 1.1 Tiny//EN" "http://www.w3.org/Graphics/SVG/1.1/DTD/svg11-tiny.dtd">
<svg viewBox="-250 -250 500 500" width="500" height="500" xmlns="http://www.w3.org/2000/svg"><path d="M-31.535222888006164,-34.26802336854971L80.35978342248808,-64.2500980917129L32.1268412654779,-181.29105090695933z" style="fill:rgb(127,37,217)"/><path d="M87.13752513585851,35.82063815870625L78.71827348468864,-68.23333998438713L-33.52416504702732,-38.037823301669434z" style="fill:rgb(83,212,212)"/><path d="M80.35978342248808,-64.2500980917129L80.05394690349881,-67.9678965702349L31.991684643511835,-184.9083146008724zM88.92046549931757,39.81494984892204L80.35978342248808,-64.2500980917129L78.71827348468864,-68.23333998438713z" style="fill:rgb(247,158,158)"/><path d="M32.1268412654779,-181.29105090695933L-89.81546277555609,-144.7311503065271L-31.535222888006164,-34.26802336854971z" style="fill:rgb(127,37,217)"/><path d="M-33.52416504702732,-38.037823301669434L-37.002036307449146,66.02380082560114L87.13752513585851,35.82063815870625z" style="fill:rgb(83,212,212)"/><path d="M31.991684643511835,-184.9083146008724L32.1268412654779,-181.29105090695933L80.35978342248808,-64.2500980917129zM78.71827348468864,-68.23333998438713L87.13752513585851,35.82063815870625L88.92046549931757,39.81494984892204z" style="fill:rgb(247,158,158)"/><path d="M31.991684643511835,-184.9083146008724L-89.4488630936279,-148.38991863322462L-89.81546277555609,-144.7311503065271z" style="fill:rgb(83,212,212)"/><path d="M87.13752513585851,35.82063815870625L-37.002036307449146,66.02380082560114L-34.79415204872312,69.78225209854318z" style="fill:rgb(127,37,217)"/><path d="M-89.81546277555609,-144.7311503065271L32.1268412654779,-181.29105090695933L31.991684643511835,-184.9083146008724z" style="fill:rgb(83,212,212)"/><path d="M-34.79415204872312,69.78225209854318L88.92046549931757,39.81494984892204L87.13752513585851,35.82063815870625zM-34.93742660887431,74.3566862815142L89.29796007065248,44.4038352859367L36.12551001343059,-74.27282623509262z" style="fill:rgb(127,37,217)"/><path d="M98.03934692828739,170.5568415972459L87.50893193018594,40.410874606479425L-37.15499418682634,70.60046416165969z" style="fill:rgb(83,212,212)"/><path d="M36.12551001343059,-74.27282623509262L89.29796007065248,44.4038352859367L88.92046549931757,39.81494984892204zM99.99566486576832,174.44687111105932L89.29796007065248,44.4038352859367L87.50893193018594,40.410874606479425z" style="fill:rgb(247,158,158)"/><path d="M36.12551001343059,-74.27282623509262L-100.61991680622384,-36.89941917223279L-34.93742660887431,74.3566862815142z" style="fill:rgb(127,37,217)"/><path d="M85.44213536416449,-69.29024796583104L35.89267854069025,-191.43616485024555L46.35019001763947,56.122509847987935z" style="fill:rgb(247,158,158)"/><path d="M-37.15499418682634,70.60046416165969L-41.475545813341554,199.87599388168988L98.03934692828739,170.5568415972459zM29.995703423158854,-189.6551382230582L-91.86931401242543,-152.84926598976665L-117.56392503844312,95.58718318963689z" style="fill:rgb(83,212,212)"/><path d="M88.92046549931757,39.81494984892204L35.954704493435685,-78.84417402424593L36.12551001343059,-74.27282623509262zM87.50893193018594,40.410874606479425L98.03934692828739,170.5568415972459L99.99566486576832,174.44687111105932zM31.996171568360015,-184.78823287622026L29.995703423158854,-189.6551382230582L38.7188059265393,57.95987389948713z" style="fill:rgb(247,158,158)"/><path d="M35.954704493435685,-78.84417402424593L-100.1600363380882,-41.48916568684647L-100.61991680622384,-36.89941917223279zM46.35019001763947,56.122509847987935L35.89267854069025,-191.43616485024555L29.995703423158854,-189.6551382230582z" style="fill:rgb(83,212,212)"/><path d="M98.03934692828739,170.5568415972459L-41.475545813341554,199.87599388168988L-38.98257242472675,203.50908192935526z" style="fill:rgb(127,37,217)"/><path d="M85.44213536416449,-69.29024796583104L46.35019001763947,56.122509847987935L107.24078397749176,178.64952103638703z" style="fill:rgb(247,158,158)"/><path d="M-100.61991680622384,-36.89941917223279L36.12551001343059,-74.27282623509262L35.954704493435685,-78.84417402424593z" style="fill:rgb(83,212,212)"/><path d="M-38.98257242472675,203.50908192935526L99.99566486576832,174.44687111105932L98.03934692828739,170.5568415972459zM-114.37930550599042,100.42345698921844L-39.16250644281017,209.25397438165402L100.47330376722572,180.25312729979z" style="fill:rgb(127,37,217)"/><path d="M-117.56392503844312,95.58718318963689L38.7188059265393,57.95987389948713L29.995703423158854,-189.6551382230582z" style="fill:rgb(83,212,212)"/><path d="M100.47330376722572,180.25312729979L99.99566486576832,174.44687111105932L41.03839977159859,57.213148712604216z" style="fill:rgb(247,158,158)"/><path d="M107.24078397749176,178.64952103638703L38.7188059265393,57.95987389948713L100.45730845003392,180.05869456320795z" style="fill:rgb(127,37,217)"/><path d="M38.7188059265393,57.95987389948713L41.25360955953037,62.97289855600061L31.996171568360015,-184.78823287622026z" style="fill:rgb(247,158,158)"/><path d="M29.995703423158854,-189.6551382230582L38.7188059265393,57.95987389948713L46.35019001763947,56.122509847987935z" style="fill:rgb(83,212,212)"/><path d="M100.47330376722572,180.25312729979L41.26107068603246,63.172589244300994L-114.37930550599042,100.42345698921844z" style="fill:rgb(127,37,217)"/><path d="M41.03839977159859,57.213148712604216L41.26107068603246,63.172589244300994L100.47330376722572,180.25312729979z" style="fill:rgb(247,158,158)"/><path d="M107.24078397749176,178.64952103638703L46.35019001763947,56.122509847987935L38.7188059265393,57.95987389948713z" style="fill:rgb(127,37,217)"/><path d="M-113.78542447299324,94.4963344600508L-114.37930550599042,100.42345698921844L41.26107068603246,63.172589244300994z" style="fill:rgb(83,212,212)"/><path d="M-117.56392503844312,95.58718318963689L-114.35940996913037,100.2248934978816L41.25360955953037,62.97289855600061z" style="fill:rgb(127,37,217)"/><path d="M41.26107068603246,63.172589244300994L41.03839977159859,57.213148712604216L-113.78542447299324,94.4963344600508z" style="fill:rgb(83,212,212)"/><path d="M41.25360955953037,62.97289855600061L38.7188059265393,57.95987389948713L-117.56392503844312,95.58718318963689z" style="fill:rgb(127,37,217)"/></svg>
