solid JSxCAD
facet normal 1 0 0
outer loop
vertex 19.275 -8 0
vertex 19.275 8 0.75
vertex 19.275 -8 0.75
endloop
endfacet
facet normal 1 0 0
outer loop
vertex 19.275 8 0.75
vertex 19.275 -8 0
vertex 19.275 8 0
endloop
endfacet
facet normal -1 0 0
outer loop
vertex -19.275 8 0
vertex -19.275 -8 0.75
vertex -19.275 8 0.75
endloop
endfacet
facet normal -1 0 0
outer loop
vertex -19.275 -8 0.75
vertex -19.275 8 0
vertex -19.275 -8 0
endloop
endfacet
facet normal 1 0 0
outer loop
vertex -0.375 -8 0.75
vertex -0.375 8 0
vertex -0.375 8 0.75
endloop
endfacet
facet normal 1 0 0
outer loop
vertex -0.375 8 0
vertex -0.375 -8 0.75
vertex -0.375 -8 0
endloop
endfacet
facet normal -1 0 0
outer loop
vertex 0.375 8 0.75
vertex 0.375 -8 0
vertex 0.375 -8 0.75
endloop
endfacet
facet normal -1 0 0
outer loop
vertex 0.375 -8 0
vertex 0.375 8 0.75
vertex 0.375 8 0
endloop
endfacet
facet normal 0 1 0
outer loop
vertex -0.375 8 0
vertex -19.275 8 0.75
vertex -0.375 8 0.75
endloop
endfacet
facet normal 0 1 0
outer loop
vertex -19.275 8 0.75
vertex -0.375 8 0
vertex -19.275 8 0
endloop
endfacet
facet normal 0 1 0
outer loop
vertex 19.275 8 0.75
vertex 0.375 8 0
vertex 0.375 8 0.75
endloop
endfacet
facet normal 0 1 0
outer loop
vertex 0.375 8 0
vertex 19.275 8 0.75
vertex 19.275 8 0
endloop
endfacet
facet normal 0 0 1
outer loop
vertex 0.375 8 0.75
vertex 19.275 -8 0.75
vertex 19.275 8 0.75
endloop
endfacet
facet normal 0 0 1
outer loop
vertex 19.275 -8 0.75
vertex 0.375 8 0.75
vertex 0.375 -8 0.75
endloop
endfacet
facet normal 0 0 1
outer loop
vertex -0.375 8 0.75
vertex -19.275 -8 0.75
vertex -0.375 -8 0.75
endloop
endfacet
facet normal 0 0 1
outer loop
vertex -19.275 -8 0.75
vertex -0.375 8 0.75
vertex -19.275 8 0.75
endloop
endfacet
facet normal 0 0 -1
outer loop
vertex -19.275 -8 0
vertex -0.375 8 0
vertex -0.375 -8 0
endloop
endfacet
facet normal 0 0 -1
outer loop
vertex -0.375 8 0
vertex -19.275 -8 0
vertex -19.275 8 0
endloop
endfacet
facet normal 0 0 -1
outer loop
vertex 19.275 -8 0
vertex 0.375 8 0
vertex 19.275 8 0
endloop
endfacet
facet normal 0 0 -1
outer loop
vertex 0.375 8 0
vertex 19.275 -8 0
vertex 0.375 -8 0
endloop
endfacet
facet normal 0 -1 0
outer loop
vertex -19.275 -8 0
vertex -0.375 -8 0.75
vertex -19.275 -8 0.75
endloop
endfacet
facet normal 0 -1 0
outer loop
vertex -0.375 -8 0.75
vertex -19.275 -8 0
vertex -0.375 -8 0
endloop
endfacet
facet normal 0 -1 0
outer loop
vertex 0.375 -8 0
vertex 19.275 -8 0.75
vertex 0.375 -8 0.75
endloop
endfacet
facet normal 0 -1 0
outer loop
vertex 19.275 -8 0.75
vertex 0.375 -8 0
vertex 19.275 -8 0
endloop
endfacet
facet normal 0 0 -1
outer loop
vertex 20 8 20
vertex -0.375 -8 20
vertex -20 8 20
endloop
endfacet
facet normal 0 0 -1
outer loop
vertex 20 8 20
vertex 19.275 -8 20
vertex -0.375 -8 20
endloop
endfacet
facet normal 0 0 -0.9999999999999999
outer loop
vertex 19.275 -8 20
vertex 20 8 20
vertex 20 -8 20
endloop
endfacet
facet normal 0 0 -1
outer loop
vertex -0.375 -8 20
vertex -20 -8 20
vertex -20 8 20
endloop
endfacet
facet normal 0 1 0
outer loop
vertex 19.275 8 20
vertex 20 8 20.75
vertex 20 8 20
endloop
endfacet
facet normal 0 0.9999999999999999 0
outer loop
vertex 0.375 8 20
vertex 20 8 20.75
vertex 19.275 8 20
endloop
endfacet
facet normal 0 1 0
outer loop
vertex -0.375 8 20
vertex 20 8 20.75
vertex 0.375 8 20
endloop
endfacet
facet normal 0 1 0
outer loop
vertex -19.275 8 20
vertex 20 8 20.75
vertex -0.375 8 20
endloop
endfacet
facet normal 0 1 0
outer loop
vertex -20 8 20
vertex 20 8 20.75
vertex -19.275 8 20
endloop
endfacet
facet normal 0 1 0
outer loop
vertex 20 8 20.75
vertex -20 8 20
vertex -20 8 20.75
endloop
endfacet
facet normal 0 0 1
outer loop
vertex -20 8 20.75
vertex 20 -8 20.75
vertex 20 8 20.75
endloop
endfacet
facet normal 0 0 1
outer loop
vertex 20 -8 20.75
vertex -20 8 20.75
vertex -20 -8 20.75
endloop
endfacet
facet normal 0 -1 0
outer loop
vertex 20 -8 20.75
vertex 19.275 -8 20
vertex 20 -8 20
endloop
endfacet
facet normal 0 -0.9999999999999999 0
outer loop
vertex 20 -8 20.75
vertex 0.375 -8 20
vertex 19.275 -8 20
endloop
endfacet
facet normal 0 -1 0
outer loop
vertex 20 -8 20.75
vertex -0.375 -8 20
vertex 0.375 -8 20
endloop
endfacet
facet normal 0 -1 0
outer loop
vertex 20 -8 20.75
vertex -19.275 -8 20
vertex -0.375 -8 20
endloop
endfacet
facet normal 0 -1 0
outer loop
vertex -20 -8 20.75
vertex -19.275 -8 20
vertex 20 -8 20.75
endloop
endfacet
facet normal 0 -1 0
outer loop
vertex -19.275 -8 20
vertex -20 -8 20.75
vertex -20 -8 20
endloop
endfacet
facet normal -1 0 0
outer loop
vertex -20 8 20.75
vertex -20 -8 20
vertex -20 -8 20.75
endloop
endfacet
facet normal -1 0 0
outer loop
vertex -20 -8 20
vertex -20 8 20.75
vertex -20 8 20
endloop
endfacet
facet normal 1 0 0
outer loop
vertex 20 8 20.75
vertex 20 -8 20
vertex 20 8 20
endloop
endfacet
facet normal 1 0 0
outer loop
vertex 20 -8 20
vertex 20 8 20.75
vertex 20 -8 20.75
endloop
endfacet
facet normal 0 1 0
outer loop
vertex 20.025 8 20
vertex 19.275 8 0.75
vertex 19.275 8 20
endloop
endfacet
facet normal 0 1 0
outer loop
vertex 20.025 8 0
vertex 19.275 8 0.75
vertex 20.025 8 20
endloop
endfacet
facet normal 0 1 0
outer loop
vertex 20 8 0
vertex 19.275 8 0.75
vertex 20.025 8 0
endloop
endfacet
facet normal 0 1 0
outer loop
vertex 19.275 8 0.75
vertex 20 8 0
vertex 19.275 8 0
endloop
endfacet
facet normal 0 0 0.9999999999999999
outer loop
vertex 19.275 8 20
vertex 19.275 -8 20
vertex 20 8 20
endloop
endfacet
facet normal 0 0 1
outer loop
vertex 19.275 -8 20
vertex 20.025 8 20
vertex 20 8 20
endloop
endfacet
facet normal 0 0 0.9999999999999999
outer loop
vertex 20 -8 20
vertex 20.025 8 20
vertex 19.275 -8 20
endloop
endfacet
facet normal 0 0 1
outer loop
vertex 20.025 8 20
vertex 20 -8 20
vertex 20.025 -8 20
endloop
endfacet
facet normal 0 0 -1
outer loop
vertex 20.025 8 0
vertex 19.275 -8 0
vertex 19.275 8 0
endloop
endfacet
facet normal 0 0 -1
outer loop
vertex 19.275 -8 0
vertex 20.025 8 0
vertex 20.025 -8 0
endloop
endfacet
facet normal 0 -1 0
outer loop
vertex 19.275 -8 0.75
vertex 20.025 -8 20
vertex 19.275 -8 20
endloop
endfacet
facet normal 0 -1 0
outer loop
vertex 19.275 -8 0
vertex 20.025 -8 20
vertex 19.275 -8 0.75
endloop
endfacet
facet normal 0 -1 0
outer loop
vertex 20.025 -8 20
vertex 19.275 -8 0
vertex 20.025 -8 0
endloop
endfacet
facet normal -1 0 0
outer loop
vertex 19.275 8 0.75
vertex 19.275 -8 20
vertex 19.275 8 20
endloop
endfacet
facet normal -1 0 0
outer loop
vertex 19.275 8 0.75
vertex 19.275 -8 0.75
vertex 19.275 -8 20
endloop
endfacet
facet normal -1 0 0
outer loop
vertex 19.275 8 0
vertex 19.275 -8 0.75
vertex 19.275 8 0.75
endloop
endfacet
facet normal -1 0 0
outer loop
vertex 19.275 -8 0.75
vertex 19.275 8 0
vertex 19.275 -8 0
endloop
endfacet
facet normal 1 0 0
outer loop
vertex 20.025 -8 20
vertex 20.025 8 0
vertex 20.025 8 20
endloop
endfacet
facet normal 1 0 0
outer loop
vertex 20.025 8 0
vertex 20.025 -8 20
vertex 20.025 -8 0
endloop
endfacet
facet normal 0 1 0
outer loop
vertex -19.275 8 0
vertex -20 8 20
vertex -19.275 8 20
endloop
endfacet
facet normal 0 1 0
outer loop
vertex -20 8 0
vertex -20 8 20
vertex -19.275 8 0
endloop
endfacet
facet normal 0 1 0
outer loop
vertex -20.025 8 0
vertex -20 8 20
vertex -20 8 0
endloop
endfacet
facet normal 0 1 0
outer loop
vertex -20 8 20
vertex -20.025 8 0
vertex -20.025 8 20
endloop
endfacet
facet normal 0 0 0.9999999999999999
outer loop
vertex -20 8 20
vertex -19.275 -8 20
vertex -19.275 8 20
endloop
endfacet
facet normal 0 0 0.9999999999999999
outer loop
vertex -20 8 20
vertex -20 -8 20
vertex -19.275 -8 20
endloop
endfacet
facet normal 0 0 1
outer loop
vertex -20.025 8 20
vertex -20 -8 20
vertex -20 8 20
endloop
endfacet
facet normal 0 0 1
outer loop
vertex -20 -8 20
vertex -20.025 8 20
vertex -20.025 -8 20
endloop
endfacet
facet normal 0 0 -1
outer loop
vertex -19.275 8 0
vertex -20.025 -8 0
vertex -20.025 8 0
endloop
endfacet
facet normal 0 0 -1
outer loop
vertex -20.025 -8 0
vertex -19.275 8 0
vertex -19.275 -8 0
endloop
endfacet
facet normal 0 -0.9999999999999999 0
outer loop
vertex -20.025 -8 20
vertex -19.275 -8 0.75
vertex -20 -8 20
endloop
endfacet
facet normal 0 -1 0
outer loop
vertex -20.025 -8 0
vertex -19.275 -8 0.75
vertex -20.025 -8 20
endloop
endfacet
facet normal 0 -1 0
outer loop
vertex -19.275 -8 0.75
vertex -20.025 -8 0
vertex -19.275 -8 0
endloop
endfacet
facet normal 0 -0.9999999999999999 0
outer loop
vertex -19.275 -8 20
vertex -20 -8 20
vertex -19.275 -8 0.75
endloop
endfacet
facet normal -1 0 0
outer loop
vertex -20.025 8 0
vertex -20.025 -8 20
vertex -20.025 8 20
endloop
endfacet
facet normal -1 0 0
outer loop
vertex -20.025 -8 20
vertex -20.025 8 0
vertex -20.025 -8 0
endloop
endfacet
facet normal 1 0 0
outer loop
vertex -19.275 -8 20
vertex -19.275 8 0.75
vertex -19.275 8 20
endloop
endfacet
facet normal 1 0 0
outer loop
vertex -19.275 -8 0.75
vertex -19.275 8 0.75
vertex -19.275 -8 20
endloop
endfacet
facet normal 1 0 0
outer loop
vertex -19.275 -8 0
vertex -19.275 8 0.75
vertex -19.275 -8 0.75
endloop
endfacet
facet normal 1 0 0
outer loop
vertex -19.275 8 0.75
vertex -19.275 -8 0
vertex -19.275 8 0
endloop
endfacet
facet normal 0 1 0
outer loop
vertex 0.375 8 0
vertex -0.375 8 0
vertex -0.375 8 0.75
endloop
endfacet
facet normal 0 1 0
outer loop
vertex -0.375 8 0.75
vertex 0.375 8 20
vertex 0.375 8 0
endloop
endfacet
facet normal 0 1 0
outer loop
vertex 0.375 8 20
vertex -0.375 8 0.75
vertex -0.375 8 20
endloop
endfacet
facet normal 0 0 1
outer loop
vertex -0.375 -8 20
vertex 0.375 8 20
vertex -0.375 8 20
endloop
endfacet
facet normal 0 0 1
outer loop
vertex 0.375 8 20
vertex -0.375 -8 20
vertex 0.375 -8 20
endloop
endfacet
facet normal 0 0 -1
outer loop
vertex 0.375 -8 0
vertex -0.375 8 0
vertex 0.375 8 0
endloop
endfacet
facet normal 0 0 -1
outer loop
vertex -0.375 8 0
vertex 0.375 -8 0
vertex -0.375 -8 0
endloop
endfacet
facet normal 0 -1 0
outer loop
vertex -0.375 -8 0.75
vertex 0.375 -8 20
vertex -0.375 -8 20
endloop
endfacet
facet normal 0 -1 0
outer loop
vertex -0.375 -8 0.75
vertex 0.375 -8 0.75
vertex 0.375 -8 20
endloop
endfacet
facet normal 0 -1 0
outer loop
vertex -0.375 -8 0
vertex 0.375 -8 0.75
vertex -0.375 -8 0.75
endloop
endfacet
facet normal 0 -1 0
outer loop
vertex 0.375 -8 0.75
vertex -0.375 -8 0
vertex 0.375 -8 0
endloop
endfacet
facet normal -1 0 0
outer loop
vertex -0.375 8 20
vertex -0.375 -8 0.75
vertex -0.375 -8 20
endloop
endfacet
facet normal -1 0 0
outer loop
vertex -0.375 8 0.75
vertex -0.375 -8 0.75
vertex -0.375 8 20
endloop
endfacet
facet normal -1 0 0
outer loop
vertex -0.375 8 0.75
vertex -0.375 -8 0
vertex -0.375 -8 0.75
endloop
endfacet
facet normal -1 0 0
outer loop
vertex -0.375 -8 0
vertex -0.375 8 0.75
vertex -0.375 8 0
endloop
endfacet
facet normal 1 0 0
outer loop
vertex 0.375 -8 20
vertex 0.375 8 0.75
vertex 0.375 8 20
endloop
endfacet
facet normal 1 0 0
outer loop
vertex 0.375 -8 0.75
vertex 0.375 8 0.75
vertex 0.375 -8 20
endloop
endfacet
facet normal 1 0 0
outer loop
vertex 0.375 -8 0
vertex 0.375 8 0.75
vertex 0.375 -8 0.75
endloop
endfacet
facet normal 1 0 0
outer loop
vertex 0.375 8 0.75
vertex 0.375 -8 0
vertex 0.375 8 0
endloop
endfacet
facet normal 0 0 1
outer loop
vertex -20 8.75 20.75
vertex 20 8 20.75
vertex 20 8.75 20.75
endloop
endfacet
facet normal 0 0 1
outer loop
vertex 20 8 20.75
vertex -20 8.75 20.75
vertex -20 8 20.75
endloop
endfacet
facet normal 0 0 -1
outer loop
vertex 19.275 8 0
vertex 20 8.75 0
vertex 20 8 0
endloop
endfacet
facet normal 0 0 -1
outer loop
vertex 0.375 8 0
vertex 20 8.75 0
vertex 19.275 8 0
endloop
endfacet
facet normal 0 0 -1
outer loop
vertex -0.375 8 0
vertex 20 8.75 0
vertex 0.375 8 0
endloop
endfacet
facet normal 0 0 -1
outer loop
vertex -19.275 8 0
vertex 20 8.75 0
vertex -0.375 8 0
endloop
endfacet
facet normal 0 0 -1
outer loop
vertex -19.275 8 0
vertex -20 8.75 0
vertex 20 8.75 0
endloop
endfacet
facet normal 0 0 -1
outer loop
vertex -20 8.75 0
vertex -19.275 8 0
vertex -20 8 0
endloop
endfacet
facet normal 0 -1 0
outer loop
vertex 20 8 20.75
vertex 19.275 8 0
vertex 20 8 0
endloop
endfacet
facet normal 0 -0.9999999999999999 0
outer loop
vertex 20 8 20.75
vertex 0.375 8 0
vertex 19.275 8 0
endloop
endfacet
facet normal 0 -0.9999999999999999 0
outer loop
vertex 20 8 20.75
vertex -0.375 8 0
vertex 0.375 8 0
endloop
endfacet
facet normal 0 -0.9999999999999999 0
outer loop
vertex 20 8 20.75
vertex -19.275 8 0
vertex -0.375 8 0
endloop
endfacet
facet normal 0 -1 0
outer loop
vertex 20 8 20.75
vertex -20 8 20
vertex -19.275 8 0
endloop
endfacet
facet normal 0 -1 0
outer loop
vertex -20 8 20
vertex 20 8 20.75
vertex -20 8 20.75
endloop
endfacet
facet normal 0 -1 0
outer loop
vertex -19.275 8 0
vertex -20 8 20
vertex -20 8 0
endloop
endfacet
facet normal -0.9999999999999999 0 0
outer loop
vertex -20 8 0
vertex -20 8.75 20.75
vertex -20 8.75 0
endloop
endfacet
facet normal -0.9999999999999999 0 0
outer loop
vertex -20 8 0
vertex -20 8 20.75
vertex -20 8.75 20.75
endloop
endfacet
facet normal 0 1 0
outer loop
vertex -20 8.75 0
vertex 20 8.75 20.75
vertex 20 8.75 0
endloop
endfacet
facet normal 0 1 0
outer loop
vertex 20 8.75 20.75
vertex -20 8.75 0
vertex -20 8.75 20.75
endloop
endfacet
facet normal 0.9999999999999999 0 0
outer loop
vertex 20 8 20.75
vertex 20 8.75 0
vertex 20 8.75 20.75
endloop
endfacet
facet normal 0.9999999999999999 0 0
outer loop
vertex 20 8 20.75
vertex 20 8 0
vertex 20 8.75 0
endloop
endfacet
endsolid JSxCAD
