<?xml version="1.0" encoding="UTF-8"?>
<!-- Generated by jsxcad -->
<!DOCTYPE svg PUBLIC "-//W3C//DTD SVG 1.1 Tiny//EN" "http://www.w3.org/Graphics/SVG/1.1/DTD/svg11-tiny.dtd">
<svg viewBox="-250 -250 500 500" width="500" height="500" xmlns="http://www.w3.org/2000/svg"><path d="M-37.00203630744917,66.02380082560119L78.71827348468868,-68.23333998438716L-33.524165047027324,-38.037823301669434z" style="fill:rgb(83,212,212)"/><path d="M32.126841265477914,-181.2910509069594L-31.535222888006178,-34.26802336854973L80.3597834224881,-64.25009809171291z" style="fill:rgb(127,37,217)"/><path d="M80.05394690349881,-67.9678965702349L32.126841265477914,-181.2910509069594L80.3597834224881,-64.25009809171291zM78.71827348468868,-68.23333998438716L88.9204654993176,39.81494984892205L80.3597834224881,-64.25009809171291z" style="fill:rgb(247,158,158)"/><path d="M-31.535222888006178,-34.26802336854973L32.126841265477914,-181.2910509069594L-89.81546277555611,-144.7311503065271z" style="fill:rgb(127,37,217)"/><path d="M78.71827348468868,-68.23333998438716L-37.00203630744917,66.02380082560119L87.13752513585854,35.82063815870626z" style="fill:rgb(83,212,212)"/><path d="M32.126841265477914,-181.2910509069594L80.05394690349881,-67.9678965702349L31.99168464351184,-184.90831460087242zM88.9204654993176,39.81494984892205L78.71827348468868,-68.23333998438716L87.13752513585854,35.82063815870626z" style="fill:rgb(247,158,158)"/><path d="M32.126841265477914,-181.2910509069594L-89.44886309362793,-148.38991863322465L-89.81546277555611,-144.7311503065271z" style="fill:rgb(83,212,212)"/><path d="M-34.79415204872313,69.7822520985432L87.13752513585854,35.82063815870626L-37.00203630744917,66.02380082560119z" style="fill:rgb(127,37,217)"/><path d="M-89.44886309362793,-148.38991863322465L32.126841265477914,-181.2910509069594L31.99168464351184,-184.90831460087242z" style="fill:rgb(83,212,212)"/><path d="M87.13752513585854,35.82063815870626L-34.79415204872313,69.7822520985432L88.9204654993176,39.81494984892205z" style="fill:rgb(127,37,217)"/><path d="M-41.47554581334156,199.8759938816899L87.50893193018595,40.41087460647943L-37.15499418682635,70.60046416165972z" style="fill:rgb(83,212,212)"/><path d="M36.125510013430606,-74.27282623509265L-34.937426608874325,74.35668628151423L89.2979600706525,44.40383528593671z" style="fill:rgb(127,37,217)"/><path d="M35.9547044934357,-78.84417402424597L89.2979600706525,44.40383528593671L88.9204654993176,39.81494984892205zM87.50893193018595,40.41087460647943L99.99566486576836,174.4468711110594L89.2979600706525,44.40383528593671z" style="fill:rgb(247,158,158)"/><path d="M-34.937426608874325,74.35668628151423L36.125510013430606,-74.27282623509265L-100.61991680622387,-36.8994191722328z" style="fill:rgb(127,37,217)"/><path d="M46.3501900176395,56.12250984798796L85.44213536416449,-69.29024796583104L35.89267854069026,-191.4361648502456z" style="fill:rgb(247,158,158)"/><path d="M87.50893193018595,40.41087460647943L-41.47554581334156,199.8759938816899L98.03934692828742,170.55684159724592z" style="fill:rgb(83,212,212)"/><path d="M89.2979600706525,44.40383528593671L35.9547044934357,-78.84417402424597L36.125510013430606,-74.27282623509265z" style="fill:rgb(247,158,158)"/><path d="M-91.86931401242548,-152.8492659897667L38.71880592653932,57.95987389948716L29.99570342315886,-189.65513822305826z" style="fill:rgb(83,212,212)"/><path d="M99.99566486576836,174.4468711110594L87.50893193018595,40.41087460647943L98.03934692828742,170.55684159724592zM29.99570342315886,-189.65513822305826L41.25360955953038,62.97289855600064L31.99617156836003,-184.78823287622035z" style="fill:rgb(247,158,158)"/><path d="M36.125510013430606,-74.27282623509265L-100.16003633808825,-41.48916568684649L-100.61991680622387,-36.8994191722328zM29.99570342315886,-189.65513822305826L46.3501900176395,56.12250984798796L35.89267854069026,-191.4361648502456z" style="fill:rgb(83,212,212)"/><path d="M-38.98257242472677,203.50908192935535L98.03934692828742,170.55684159724592L-41.47554581334156,199.8759938816899z" style="fill:rgb(127,37,217)"/><path d="M-100.16003633808825,-41.48916568684649L36.125510013430606,-74.27282623509265L35.9547044934357,-78.84417402424597z" style="fill:rgb(83,212,212)"/><path d="M85.44213536416449,-69.29024796583104L46.3501900176395,56.12250984798796L107.2407839774918,178.64952103638709z" style="fill:rgb(247,158,158)"/><path d="M98.03934692828742,170.55684159724592L-38.98257242472677,203.50908192935535L99.99566486576836,174.4468711110594z" style="fill:rgb(127,37,217)"/><path d="M38.71880592653932,57.95987389948716L-91.86931401242548,-152.8492659897667L-117.56392503844319,95.58718318963695z" style="fill:rgb(83,212,212)"/><path d="M41.26107068603248,63.17258924430102L-39.162506442810184,209.2539743816541L100.47330376722576,180.25312729979007z" style="fill:rgb(127,37,217)"/><path d="M99.99566486576836,174.4468711110594L41.26107068603248,63.17258924430102L100.47330376722576,180.25312729979007z" style="fill:rgb(247,158,158)"/><path d="M46.3501900176395,56.12250984798796L100.45730845003396,180.05869456320804L107.2407839774918,178.64952103638709z" style="fill:rgb(127,37,217)"/><path d="M41.25360955953038,62.97289855600064L29.99570342315886,-189.65513822305826L38.71880592653932,57.95987389948716z" style="fill:rgb(247,158,158)"/><path d="M46.3501900176395,56.12250984798796L29.99570342315886,-189.65513822305826L38.71880592653932,57.95987389948716z" style="fill:rgb(83,212,212)"/><path d="M-39.162506442810184,209.2539743816541L41.26107068603248,63.17258924430102L-114.37930550599047,100.42345698921848z" style="fill:rgb(127,37,217)"/><path d="M41.26107068603248,63.17258924430102L99.99566486576836,174.4468711110594L41.03839977159861,57.21314871260424z" style="fill:rgb(247,158,158)"/><path d="M100.45730845003396,180.05869456320804L46.3501900176395,56.12250984798796L38.71880592653932,57.95987389948716z" style="fill:rgb(127,37,217)"/><path d="M41.26107068603248,63.17258924430102L-113.78542447299331,94.49633446005086L-114.37930550599047,100.42345698921848z" style="fill:rgb(83,212,212)"/><path d="M-114.35940996913043,100.22489349788165L38.71880592653932,57.95987389948716L-117.56392503844319,95.58718318963695z" style="fill:rgb(127,37,217)"/><path d="M-113.78542447299331,94.49633446005086L41.26107068603248,63.17258924430102L41.03839977159861,57.21314871260424z" style="fill:rgb(83,212,212)"/><path d="M38.71880592653932,57.95987389948716L-114.35940996913043,100.22489349788165L41.25360955953038,62.97289855600064z" style="fill:rgb(127,37,217)"/></svg>
